<svg width="1440" height="1024" viewBox="0 0 1440 1024" fill="none" xmlns="http://www.w3.org/2000/svg">
<g clip-path="url(#clip0)">
<rect width="1440" height="1024" fill="#1E1E1E"/>
<rect width="1440" height="1024" fill="#1E1E1E"/>
<path d="M0 519L1440 41V263L0 619V519Z" fill="white"/>
<path d="M0 631.5L1440 324L1449.5 591.5L0 709.5V631.5Z" fill="#EB2F2F"/>
<path d="M0 753.5L1440 619V801H0V753.5Z" fill="#B9B9B9"/>
<path d="M-0.239997 618.029L-1 618.217V619V631.5V632.736L0.208833 632.478L1440.21 324.978L1441 324.809V324V263V261.723L1439.76 262.029L-0.239997 618.029Z" fill="#767676" stroke="black" stroke-width="2"/>
<path d="M-0.0813269 705.503L-1 705.578V706.5V751V752.096L0.0909411 751.996L1440.09 620.496L1441 620.413V619.5V589V587.915L1439.92 588.003L-0.0813269 705.503Z" fill="#767676" stroke="black" stroke-width="2"/>
</g>
<defs>
<clipPath id="clip0">
<rect width="1440" height="1024" fill="white"/>
</clipPath>
</defs>
</svg>

