<svg width="782" height="499" viewBox="0 0 782 499" fill="none" xmlns="http://www.w3.org/2000/svg">
<path d="M725 309C725 280.897 716.464 253.069 699.88 227.106C683.296 201.142 658.989 177.551 628.345 157.679C597.702 137.807 561.323 122.044 521.286 111.29C481.248 100.535 438.336 95 395 95C351.664 95 308.752 100.535 268.714 111.29C228.677 122.044 192.298 137.807 161.655 157.679C131.011 177.551 106.704 201.142 90.1197 227.106C73.5357 253.069 65 280.897 65 309L233.823 309C233.823 295.274 237.992 281.683 246.092 269.002C254.192 256.321 266.064 244.798 281.031 235.093C295.998 225.387 313.766 217.688 333.32 212.436C352.875 207.183 373.834 204.479 395 204.479C416.166 204.479 437.125 207.183 456.68 212.436C476.234 217.688 494.002 225.387 508.969 235.093C523.936 244.798 535.808 256.321 543.908 269.002C552.008 281.683 556.177 295.274 556.177 309H725Z" fill="#8D14D8"/>
<path d="M725 309C725 280.897 716.464 253.069 699.88 227.106C683.296 201.142 658.989 177.551 628.345 157.679C597.702 137.807 561.323 122.044 521.286 111.29C481.248 100.535 438.336 95 395 95C351.664 95 308.752 100.535 268.714 111.29C228.677 122.044 192.298 137.807 161.655 157.679C131.011 177.551 106.704 201.142 90.1197 227.106C73.5357 253.069 65 280.897 65 309L208.348 309C208.348 293.105 213.176 277.365 222.556 262.68C231.936 247.994 245.685 234.651 263.017 223.411C280.349 212.171 300.926 203.256 323.571 197.173C346.217 191.09 370.489 187.959 395 187.959C419.511 187.959 443.783 191.09 466.429 197.173C489.074 203.256 509.651 212.171 526.983 223.411C544.315 234.651 558.064 247.994 567.444 262.68C576.824 277.365 581.652 293.105 581.652 309H725Z" fill="#5C1FA9"/>
<path d="M725 309C725 280.897 716.464 253.069 699.88 227.106C683.296 201.142 658.989 177.551 628.345 157.679C597.702 137.807 561.323 122.044 521.286 111.29C481.248 100.535 438.336 95 395 95C351.664 95 308.752 100.535 268.714 111.29C228.677 122.044 192.298 137.807 161.655 157.679C131.011 177.551 106.704 201.142 90.1197 227.106C73.5357 253.069 65 280.897 65 309L183.8 309C183.8 291.014 189.263 273.204 199.877 256.588C210.49 239.971 226.047 224.873 245.659 212.155C265.271 199.437 288.553 189.348 314.177 182.465C339.801 175.583 367.265 172.04 395 172.04C422.735 172.04 450.199 175.583 475.823 182.465C501.447 189.348 524.729 199.437 544.341 212.155C563.953 224.873 579.51 239.971 590.123 256.588C600.737 273.204 606.2 291.014 606.2 309H725Z" fill="#404ED1"/>
<path d="M725 309C725 280.897 716.464 253.069 699.88 227.106C683.296 201.142 658.989 177.551 628.345 157.679C597.702 137.807 561.323 122.044 521.286 111.29C481.248 100.535 438.336 95 395 95C351.664 95 308.752 100.535 268.714 111.29C228.677 122.044 192.298 137.807 161.655 157.679C131.011 177.551 106.704 201.142 90.1197 227.106C73.5357 253.069 65 280.897 65 309L160.7 309C160.7 289.047 166.76 269.289 178.535 250.855C190.31 232.421 207.568 215.671 229.325 201.562C251.082 187.453 276.911 176.261 305.337 168.626C333.764 160.99 364.231 157.06 395 157.06C425.769 157.06 456.236 160.99 484.663 168.626C513.089 176.261 538.918 187.453 560.675 201.562C582.432 215.671 599.69 232.421 611.465 250.855C623.24 269.289 629.3 289.047 629.3 309H725Z" fill="#25D82C"/>
<path d="M725 309C725 280.897 716.464 253.069 699.88 227.106C683.296 201.142 658.989 177.551 628.345 157.679C597.702 137.807 561.323 122.044 521.286 111.29C481.248 100.535 438.336 95 395 95C351.664 95 308.752 100.535 268.714 111.29C228.677 122.044 192.298 137.807 161.655 157.679C131.011 177.551 106.704 201.142 90.1197 227.106C73.5357 253.069 65 280.897 65 309L137.6 309C137.6 287.08 144.258 265.374 157.193 245.122C170.129 224.871 189.089 206.47 212.991 190.97C236.893 175.47 265.268 163.175 296.497 154.786C327.726 146.398 361.198 142.08 395 142.08C428.802 142.08 462.273 146.398 493.503 154.786C524.732 163.175 553.107 175.47 577.009 190.97C600.911 206.47 619.871 224.871 632.807 245.122C645.742 265.374 652.4 287.08 652.4 309H725Z" fill="#FDF300"/>
<path d="M725 309C725 280.897 716.464 253.069 699.88 227.106C683.296 201.142 658.989 177.551 628.345 157.679C597.702 137.807 561.323 122.044 521.286 111.29C481.248 100.535 438.336 95 395 95C351.664 95 308.752 100.535 268.714 111.29C228.677 122.044 192.298 137.807 161.655 157.679C131.011 177.551 106.704 201.142 90.1197 227.106C73.5357 253.069 65 280.897 65 309L114.5 309C114.5 285.113 121.755 261.459 135.852 239.39C149.948 217.321 170.61 197.268 196.657 180.377C222.703 163.486 253.625 150.088 287.657 140.946C321.689 131.805 358.164 127.1 395 127.1C431.836 127.1 468.311 131.805 502.343 140.946C536.375 150.088 567.297 163.486 593.343 180.377C619.39 197.268 640.052 217.321 654.148 239.39C668.245 261.459 675.5 285.113 675.5 309H725Z" fill="#FF7A00"/>
<path d="M725 309C725 280.897 716.464 253.069 699.88 227.106C683.296 201.142 658.989 177.551 628.345 157.679C597.702 137.807 561.323 122.044 521.286 111.29C481.248 100.535 438.336 95 395 95C351.664 95 308.752 100.535 268.714 111.29C228.677 122.044 192.298 137.807 161.655 157.679C131.011 177.551 106.704 201.142 90.1197 227.106C73.5357 253.069 65 280.897 65 309L90.6293 309C90.6293 283.08 98.5021 257.413 113.798 233.466C129.094 209.519 151.514 187.76 179.777 169.431C208.041 151.103 241.594 136.564 278.522 126.645C315.45 116.726 355.029 111.62 395 111.62C434.971 111.62 474.55 116.726 511.478 126.645C548.406 136.564 581.959 151.103 610.223 169.431C638.486 187.76 660.906 209.519 676.202 233.466C691.498 257.413 699.371 283.08 699.371 309H725Z" fill="#FF0000"/>
<path d="M103.5 346C103.5 379.491 80.3708 406.5 52 406.5C23.6292 406.5 0.5 379.491 0.5 346C0.5 312.509 23.6292 285.5 52 285.5C80.3708 285.5 103.5 312.509 103.5 346Z" fill="white" stroke="black"/>
<path d="M143.5 407C143.5 440.491 120.371 467.5 92 467.5C63.6292 467.5 40.5 440.491 40.5 407C40.5 373.509 63.6292 346.5 92 346.5C120.371 346.5 143.5 373.509 143.5 407Z" fill="white" stroke="black"/>
<path d="M167.5 346C167.5 379.491 144.371 406.5 116 406.5C87.6292 406.5 64.5 379.491 64.5 346C64.5 312.509 87.6292 285.5 116 285.5C144.371 285.5 167.5 312.509 167.5 346Z" fill="white" stroke="black"/>
<path d="M247.5 346C247.5 379.491 224.371 406.5 196 406.5C167.629 406.5 144.5 379.491 144.5 346C144.5 312.509 167.629 285.5 196 285.5C224.371 285.5 247.5 312.509 247.5 346Z" fill="#FFFEFE" stroke="black"/>
<path d="M299.5 346C299.5 379.491 276.371 406.5 248 406.5C219.629 406.5 196.5 379.491 196.5 346C196.5 312.509 219.629 285.5 248 285.5C276.371 285.5 299.5 312.509 299.5 346Z" fill="white" stroke="black"/>
<path d="M271.5 407C271.5 440.491 248.371 467.5 220 467.5C191.629 467.5 168.5 440.491 168.5 407C168.5 373.509 191.629 346.5 220 346.5C248.371 346.5 271.5 373.509 271.5 407Z" fill="#FFFEFE" stroke="black"/>
<ellipse cx="156" cy="407" rx="52" ry="61" fill="white"/>
<path d="M239.5 438C239.5 454.645 230.21 469.758 215.103 480.729C199.996 491.699 179.102 498.5 156 498.5C132.898 498.5 112.004 491.699 96.8968 480.729C81.7896 469.758 72.5 454.645 72.5 438C72.5 421.355 81.7896 406.242 96.8968 395.271C112.004 384.301 132.898 377.5 156 377.5C179.102 377.5 199.996 384.301 215.103 395.271C230.21 406.242 239.5 421.355 239.5 438Z" fill="#FCFCFC" stroke="black"/>
<path d="M585.5 346C585.5 379.491 562.371 406.5 534 406.5C505.629 406.5 482.5 379.491 482.5 346C482.5 312.509 505.629 285.5 534 285.5C562.371 285.5 585.5 312.509 585.5 346Z" fill="white" stroke="black"/>
<path d="M625.5 407C625.5 440.491 602.371 467.5 574 467.5C545.629 467.5 522.5 440.491 522.5 407C522.5 373.509 545.629 346.5 574 346.5C602.371 346.5 625.5 373.509 625.5 407Z" fill="white" stroke="black"/>
<path d="M649.5 346C649.5 379.491 626.371 406.5 598 406.5C569.629 406.5 546.5 379.491 546.5 346C546.5 312.509 569.629 285.5 598 285.5C626.371 285.5 649.5 312.509 649.5 346Z" fill="white" stroke="black"/>
<path d="M729.5 346C729.5 379.491 706.371 406.5 678 406.5C649.629 406.5 626.5 379.491 626.5 346C626.5 312.509 649.629 285.5 678 285.5C706.371 285.5 729.5 312.509 729.5 346Z" fill="#FFFEFE" stroke="black"/>
<path d="M781.5 346C781.5 379.491 758.371 406.5 730 406.5C701.629 406.5 678.5 379.491 678.5 346C678.5 312.509 701.629 285.5 730 285.5C758.371 285.5 781.5 312.509 781.5 346Z" fill="white" stroke="black"/>
<path d="M753.5 407C753.5 440.491 730.371 467.5 702 467.5C673.629 467.5 650.5 440.491 650.5 407C650.5 373.509 673.629 346.5 702 346.5C730.371 346.5 753.5 373.509 753.5 407Z" fill="#FFFEFE" stroke="black"/>
<ellipse cx="638" cy="407" rx="52" ry="61" fill="white"/>
<path d="M721.5 438C721.5 454.645 712.21 469.758 697.103 480.729C681.996 491.699 661.102 498.5 638 498.5C614.898 498.5 594.004 491.699 578.897 480.729C563.79 469.758 554.5 454.645 554.5 438C554.5 421.355 563.79 406.242 578.897 395.271C594.004 384.301 614.898 377.5 638 377.5C661.102 377.5 681.996 384.301 697.103 395.271C712.21 406.242 721.5 421.355 721.5 438Z" fill="#FCFCFC" stroke="black"/>
<ellipse rx="44" ry="49.5" transform="matrix(-1 0 0 1 721 357.5)" fill="white"/>
<ellipse rx="44" ry="49.5" transform="matrix(-1 0 0 1 667 357.5)" fill="white"/>
<ellipse rx="44" ry="49.5" transform="matrix(-1 0 0 1 598 357.5)" fill="white"/>
<ellipse rx="44" ry="49.5" transform="matrix(-1 0 0 1 554 357.5)" fill="white"/>
<ellipse rx="45" ry="49" transform="matrix(-1 0 0 1 578 407)" fill="white"/>
<ellipse rx="44.5" ry="49" transform="matrix(-1 0 0 1 632.5 407)" fill="white"/>
<ellipse rx="44.5" ry="49" transform="matrix(-1 0 0 1 686.5 407)" fill="white"/>
<ellipse rx="71.5" ry="49.5" transform="matrix(-1 0 0 1 632.5 432.5)" fill="white"/>
<ellipse rx="44" ry="49.5" transform="matrix(-1 0 0 1 239 357.5)" fill="white"/>
<ellipse rx="44" ry="49.5" transform="matrix(-1 0 0 1 185 357.5)" fill="white"/>
<ellipse rx="44" ry="49.5" transform="matrix(-1 0 0 1 116 357.5)" fill="white"/>
<ellipse rx="44" ry="49.5" transform="matrix(-1 0 0 1 72 357.5)" fill="white"/>
<ellipse rx="45" ry="49" transform="matrix(-1 0 0 1 96 407)" fill="white"/>
<ellipse rx="44.5" ry="49" transform="matrix(-1 0 0 1 150.5 407)" fill="white"/>
<ellipse rx="44.5" ry="49" transform="matrix(-1 0 0 1 204.5 407)" fill="white"/>
<ellipse rx="71.5" ry="49.5" transform="matrix(-1 0 0 1 150.5 432.5)" fill="white"/>
<path d="M231.312 64.0469C229 67.3594 225.766 69.8438 221.609 71.5C217.484 73.125 212.672 73.9375 207.172 73.9375C201.609 73.9375 196.672 72.6406 192.359 70.0469C188.047 67.4219 184.703 63.7031 182.328 58.8906C179.984 54.0781 178.781 48.5 178.719 42.1562V36.2031C178.719 25.9219 181.109 17.9531 185.891 12.2969C190.703 6.64062 197.453 3.8125 206.141 3.8125C213.266 3.8125 219 5.64062 223.344 9.29688C227.688 12.9219 230.344 18.0781 231.312 24.7656H222.312C220.625 15.7344 215.25 11.2188 206.188 11.2188C200.156 11.2188 195.578 13.3437 192.453 17.5938C189.359 21.8125 187.797 27.9375 187.766 35.9688V41.5469C187.766 49.2031 189.516 55.2969 193.016 59.8281C196.516 64.3281 201.25 66.5781 207.219 66.5781C210.594 66.5781 213.547 66.2031 216.078 65.4531C218.609 64.7031 220.703 63.4375 222.359 61.6562V46.3281H206.562V39.0156H231.312V64.0469ZM242.703 47.1719C242.703 42.2031 243.672 37.7344 245.609 33.7656C247.578 29.7969 250.297 26.7344 253.766 24.5781C257.266 22.4219 261.25 21.3438 265.719 21.3438C272.625 21.3438 278.203 23.7344 282.453 28.5156C286.734 33.2969 288.875 39.6562 288.875 47.5938V48.2031C288.875 53.1406 287.922 57.5781 286.016 61.5156C284.141 65.4219 281.438 68.4688 277.906 70.6562C274.406 72.8438 270.375 73.9375 265.812 73.9375C258.938 73.9375 253.359 71.5469 249.078 66.7656C244.828 61.9844 242.703 55.6562 242.703 47.7812V47.1719ZM251.422 48.2031C251.422 53.8281 252.719 58.3438 255.312 61.75C257.938 65.1562 261.438 66.8594 265.812 66.8594C270.219 66.8594 273.719 65.1406 276.312 61.7031C278.906 58.2344 280.203 53.3906 280.203 47.1719C280.203 41.6094 278.875 37.1094 276.219 33.6719C273.594 30.2031 270.094 28.4688 265.719 28.4688C261.438 28.4688 257.984 30.1719 255.359 33.5781C252.734 36.9844 251.422 41.8594 251.422 48.2031ZM297.453 47.1719C297.453 42.2031 298.422 37.7344 300.359 33.7656C302.328 29.7969 305.047 26.7344 308.516 24.5781C312.016 22.4219 316 21.3438 320.469 21.3438C327.375 21.3438 332.953 23.7344 337.203 28.5156C341.484 33.2969 343.625 39.6562 343.625 47.5938V48.2031C343.625 53.1406 342.672 57.5781 340.766 61.5156C338.891 65.4219 336.188 68.4688 332.656 70.6562C329.156 72.8438 325.125 73.9375 320.562 73.9375C313.688 73.9375 308.109 71.5469 303.828 66.7656C299.578 61.9844 297.453 55.6562 297.453 47.7812V47.1719ZM306.172 48.2031C306.172 53.8281 307.469 58.3438 310.062 61.75C312.688 65.1562 316.188 66.8594 320.562 66.8594C324.969 66.8594 328.469 65.1406 331.062 61.7031C333.656 58.2344 334.953 53.3906 334.953 47.1719C334.953 41.6094 333.625 37.1094 330.969 33.6719C328.344 30.2031 324.844 28.4688 320.469 28.4688C316.188 28.4688 312.734 30.1719 310.109 33.5781C307.484 36.9844 306.172 41.8594 306.172 48.2031ZM352.391 47.2188C352.391 39.4375 354.234 33.1875 357.922 28.4688C361.609 23.7188 366.438 21.3438 372.406 21.3438C378.344 21.3438 383.047 23.375 386.516 27.4375V1H395.188V73H387.219L386.797 67.5625C383.328 71.8125 378.5 73.9375 372.312 73.9375C366.438 73.9375 361.641 71.5312 357.922 66.7188C354.234 61.9062 352.391 55.625 352.391 47.875V47.2188ZM361.062 48.2031C361.062 53.9531 362.25 58.4531 364.625 61.7031C367 64.9531 370.281 66.5781 374.469 66.5781C379.969 66.5781 383.984 64.1094 386.516 59.1719V35.875C383.922 31.0938 379.938 28.7031 374.562 28.7031C370.312 28.7031 367 30.3438 364.625 33.625C362.25 36.9062 361.062 41.7656 361.062 48.2031ZM462.453 4.75H471.5V53.0781C471.5 59.6094 469.531 64.7188 465.594 68.4062C461.688 72.0938 456.469 73.9375 449.938 73.9375C443.156 73.9375 437.875 72.2031 434.094 68.7344C430.312 65.2656 428.422 60.4062 428.422 54.1562H437.422C437.422 58.0625 438.484 61.1094 440.609 63.2969C442.766 65.4844 445.875 66.5781 449.938 66.5781C453.656 66.5781 456.656 65.4062 458.938 63.0625C461.25 60.7188 462.422 57.4375 462.453 53.2188V4.75ZM483.172 47.1719C483.172 42.2031 484.141 37.7344 486.078 33.7656C488.047 29.7969 490.766 26.7344 494.234 24.5781C497.734 22.4219 501.719 21.3438 506.188 21.3438C513.094 21.3438 518.672 23.7344 522.922 28.5156C527.203 33.2969 529.344 39.6562 529.344 47.5938V48.2031C529.344 53.1406 528.391 57.5781 526.484 61.5156C524.609 65.4219 521.906 68.4688 518.375 70.6562C514.875 72.8438 510.844 73.9375 506.281 73.9375C499.406 73.9375 493.828 71.5469 489.547 66.7656C485.297 61.9844 483.172 55.6562 483.172 47.7812V47.1719ZM491.891 48.2031C491.891 53.8281 493.188 58.3438 495.781 61.75C498.406 65.1562 501.906 66.8594 506.281 66.8594C510.688 66.8594 514.188 65.1406 516.781 61.7031C519.375 58.2344 520.672 53.3906 520.672 47.1719C520.672 41.6094 519.344 37.1094 516.688 33.6719C514.062 30.2031 510.562 28.4688 506.188 28.4688C501.906 28.4688 498.453 30.1719 495.828 33.5781C493.203 36.9844 491.891 41.8594 491.891 48.2031ZM583.156 48.2031C583.156 55.9531 581.375 62.1875 577.812 66.9062C574.25 71.5938 569.469 73.9375 563.469 73.9375C557.062 73.9375 552.109 71.6719 548.609 67.1406L548.188 73H540.219V1H548.891V27.8594C552.391 23.5156 557.219 21.3438 563.375 21.3438C569.531 21.3438 574.359 23.6719 577.859 28.3281C581.391 32.9844 583.156 39.3594 583.156 47.4531V48.2031ZM574.484 47.2188C574.484 41.3125 573.344 36.75 571.062 33.5312C568.781 30.3125 565.5 28.7031 561.219 28.7031C555.5 28.7031 551.391 31.3594 548.891 36.6719V58.6094C551.547 63.9219 555.688 66.5781 561.312 66.5781C565.469 66.5781 568.703 64.9688 571.016 61.75C573.328 58.5312 574.484 53.6875 574.484 47.2188ZM603.828 53.7344H596L595.391 4.75H604.484L603.828 53.7344ZM595.062 68.6406C595.062 67.2344 595.484 66.0625 596.328 65.125C597.203 64.1562 598.484 63.6719 600.172 63.6719C601.859 63.6719 603.141 64.1562 604.016 65.125C604.891 66.0625 605.328 67.2344 605.328 68.6406C605.328 70.0469 604.891 71.2188 604.016 72.1562C603.141 73.0625 601.859 73.5156 600.172 73.5156C598.484 73.5156 597.203 73.0625 596.328 72.1562C595.484 71.2188 595.062 70.0469 595.062 68.6406Z" fill="white"/>
<path d="M231.312 64.0469L232.132 64.6193L232.312 64.3614V64.0469H231.312ZM221.609 71.5L221.976 72.4304L221.98 72.429L221.609 71.5ZM192.359 70.0469L191.839 70.9011L191.844 70.9038L192.359 70.0469ZM182.328 58.8906L181.429 59.3285L181.431 59.3332L182.328 58.8906ZM178.719 42.1562L177.719 42.1563L177.719 42.1661L178.719 42.1562ZM185.891 12.2969L185.129 11.6489L185.127 11.6513L185.891 12.2969ZM223.344 9.29688L222.7 10.0619L222.703 10.0646L223.344 9.29688ZM231.312 24.7656V25.7656H232.468L232.302 24.6223L231.312 24.7656ZM222.312 24.7656L221.33 24.9493L221.482 25.7656H222.312V24.7656ZM192.453 17.5938L191.647 17.0014L191.647 17.0024L192.453 17.5938ZM187.766 35.9688L186.766 35.9649V35.9688H187.766ZM193.016 59.8281L192.224 60.4394L192.226 60.4421L193.016 59.8281ZM222.359 61.6562L223.092 62.3372L223.359 62.0493V61.6562H222.359ZM222.359 46.3281H223.359V45.3281H222.359V46.3281ZM206.562 46.3281H205.562V47.3281H206.562V46.3281ZM206.562 39.0156V38.0156H205.562V39.0156H206.562ZM231.312 39.0156H232.312V38.0156H231.312V39.0156ZM230.493 63.4745C228.304 66.6097 225.234 68.9791 221.239 70.571L221.98 72.429C226.297 70.7084 229.696 68.109 232.132 64.6193L230.493 63.4745ZM221.243 70.5696C217.259 72.139 212.576 72.9375 207.172 72.9375V74.9375C212.768 74.9375 217.71 74.111 221.976 72.4304L221.243 70.5696ZM207.172 72.9375C201.771 72.9375 197.016 71.6804 192.875 69.1899L191.844 70.9038C196.328 73.6008 201.447 74.9375 207.172 74.9375V72.9375ZM192.879 69.1927C188.739 66.6727 185.521 63.1016 183.225 58.4481L181.431 59.3332C183.885 64.3047 187.354 68.1711 191.839 70.9011L192.879 69.1927ZM183.227 58.4528C180.959 53.7962 179.78 48.369 179.719 42.1464L177.719 42.1661C177.782 48.631 179.009 54.3601 181.429 59.3285L183.227 58.4528ZM179.719 42.1562V36.2031H177.719V42.1562H179.719ZM179.719 36.2031C179.719 26.0671 182.076 18.359 186.654 12.9424L185.127 11.6513C180.143 17.5472 177.719 25.7767 177.719 36.2031H179.719ZM186.652 12.9449C191.242 7.5508 197.691 4.8125 206.141 4.8125V2.8125C197.215 2.8125 190.165 5.73045 185.129 11.6489L186.652 12.9449ZM206.141 4.8125C213.092 4.8125 218.579 6.59295 222.7 10.0619L223.988 8.53182C219.421 4.6883 213.439 2.8125 206.141 2.8125V4.8125ZM222.703 10.0646C226.822 13.502 229.382 18.4155 230.323 24.909L232.302 24.6223C231.305 17.7408 228.553 12.3417 223.984 8.52911L222.703 10.0646ZM231.312 23.7656H222.312V25.7656H231.312V23.7656ZM223.295 24.582C222.423 19.9099 220.572 16.2871 217.659 13.8398C214.744 11.3911 210.884 10.2188 206.188 10.2188V12.2188C210.553 12.2188 213.912 13.3042 216.372 15.3711C218.834 17.4395 220.515 20.5901 221.33 24.9493L223.295 24.582ZM206.188 10.2188C199.89 10.2188 194.99 12.4557 191.647 17.0014L193.259 18.1861C196.166 14.2318 200.422 12.2188 206.188 12.2188V10.2188ZM191.647 17.0024C188.377 21.4609 186.797 27.8284 186.766 35.9649L188.766 35.9726C188.796 28.0466 190.342 22.1641 193.26 18.1851L191.647 17.0024ZM186.766 35.9688V41.5469H188.766V35.9688H186.766ZM186.766 41.5469C186.766 49.3501 188.55 55.6822 192.224 60.4394L193.807 59.2168C190.482 54.9115 188.766 49.0562 188.766 41.5469H186.766ZM192.226 60.4421C195.926 65.1987 200.958 67.5781 207.219 67.5781V65.5781C201.542 65.5781 197.105 63.4576 193.805 59.2142L192.226 60.4421ZM207.219 67.5781C210.665 67.5781 213.717 67.1956 216.362 66.4119L215.794 64.4943C213.376 65.2106 210.523 65.5781 207.219 65.5781V67.5781ZM216.362 66.4119C219.05 65.6156 221.303 64.2606 223.092 62.3372L221.627 60.9753C220.103 62.6144 218.169 63.7907 215.794 64.4943L216.362 66.4119ZM223.359 61.6562V46.3281H221.359V61.6562H223.359ZM222.359 45.3281H206.562V47.3281H222.359V45.3281ZM207.562 46.3281V39.0156H205.562V46.3281H207.562ZM206.562 40.0156H231.312V38.0156H206.562V40.0156ZM230.312 39.0156V64.0469H232.312V39.0156H230.312ZM245.609 33.7656L244.714 33.3212L244.711 33.3269L245.609 33.7656ZM253.766 24.5781L253.241 23.7267L253.238 23.7288L253.766 24.5781ZM282.453 28.5156L281.706 29.18L281.708 29.1827L282.453 28.5156ZM286.016 61.5156L285.116 61.0799L285.114 61.0829L286.016 61.5156ZM277.906 70.6562L277.38 69.8061L277.376 69.8083L277.906 70.6562ZM249.078 66.7656L248.331 67.43L248.333 67.4327L249.078 66.7656ZM255.312 61.75L254.517 62.3558L254.52 62.3604L255.312 61.75ZM276.312 61.7031L277.111 62.3055L277.113 62.302L276.312 61.7031ZM276.219 33.6719L275.421 34.2753L275.427 34.2833L276.219 33.6719ZM243.703 47.1719C243.703 42.336 244.645 38.0202 246.508 34.2043L244.711 33.3269C242.699 37.4485 241.703 42.0702 241.703 47.1719H243.703ZM246.505 34.21C248.399 30.3932 250.996 27.4772 254.294 25.4274L253.238 23.7288C249.598 25.9915 246.758 29.2006 244.714 33.3212L246.505 34.21ZM254.29 25.4295C257.619 23.3788 261.419 22.3438 265.719 22.3438V20.3438C261.081 20.3438 256.912 21.4649 253.241 23.7267L254.29 25.4295ZM265.719 22.3438C272.365 22.3438 277.662 24.6306 281.706 29.18L283.201 27.8513C278.744 22.8381 272.885 20.3438 265.719 20.3438V22.3438ZM281.708 29.1827C285.789 33.7398 287.875 39.8416 287.875 47.5938H289.875C289.875 39.4709 287.68 32.8539 283.198 27.8485L281.708 29.1827ZM287.875 47.5938V48.2031H289.875V47.5938H287.875ZM287.875 48.2031C287.875 53.0092 286.948 57.2948 285.116 61.0799L286.916 61.9514C288.896 57.8615 289.875 53.272 289.875 48.2031H287.875ZM285.114 61.0829C283.318 64.8249 280.741 67.7236 277.38 69.8061L278.433 71.5064C282.134 69.2139 284.963 66.0189 286.917 61.9484L285.114 61.0829ZM277.376 69.8083C274.052 71.8861 270.208 72.9375 265.812 72.9375V74.9375C270.542 74.9375 274.761 73.8014 278.436 71.5042L277.376 69.8083ZM265.812 72.9375C259.199 72.9375 253.9 70.6515 249.823 66.0985L248.333 67.4327C252.819 72.4422 258.676 74.9375 265.812 74.9375V72.9375ZM249.826 66.1013C245.774 61.5428 243.703 55.4704 243.703 47.7812H241.703C241.703 55.8421 243.883 62.4259 248.331 67.43L249.826 66.1013ZM243.703 47.7812V47.1719H241.703V47.7812H243.703ZM250.422 48.2031C250.422 53.9783 251.754 58.7277 254.517 62.3558L256.108 61.1442C253.683 57.9598 252.422 53.6779 252.422 48.2031H250.422ZM254.52 62.3604C257.339 66.0173 261.134 67.8594 265.812 67.8594V65.8594C261.741 65.8594 258.536 64.2952 256.105 61.1396L254.52 62.3604ZM265.812 67.8594C270.524 67.8594 274.323 66.0001 277.111 62.3054L275.514 61.1008C273.115 64.2811 269.914 65.8594 265.812 65.8594V67.8594ZM277.113 62.302C279.882 58.5995 281.203 53.5156 281.203 47.1719H279.203C279.203 53.2657 277.931 57.8693 275.512 61.1043L277.113 62.302ZM281.203 47.1719C281.203 41.4508 279.836 36.7169 277.01 33.0604L275.427 34.2833C277.914 37.5018 279.203 41.7679 279.203 47.1719H281.203ZM277.016 33.0684C274.201 29.3482 270.405 27.4688 265.719 27.4688V29.4688C269.783 29.4688 272.987 31.058 275.421 34.2753L277.016 33.0684ZM265.719 27.4688C261.126 27.4688 257.381 29.3171 254.567 32.9677L256.151 34.1885C258.588 31.0267 261.749 29.4688 265.719 29.4688V27.4688ZM254.567 32.9677C251.757 36.6147 250.422 41.7392 250.422 48.2031H252.422C252.422 41.9795 253.712 37.354 256.151 34.1885L254.567 32.9677ZM300.359 33.7656L299.464 33.3212L299.461 33.3269L300.359 33.7656ZM308.516 24.5781L307.991 23.7267L307.988 23.7288L308.516 24.5781ZM337.203 28.5156L336.456 29.18L336.458 29.1827L337.203 28.5156ZM340.766 61.5156L339.866 61.0799L339.864 61.0829L340.766 61.5156ZM332.656 70.6562L332.13 69.8061L332.126 69.8083L332.656 70.6562ZM303.828 66.7656L303.081 67.43L303.083 67.4327L303.828 66.7656ZM310.062 61.75L309.267 62.3558L309.27 62.3604L310.062 61.75ZM331.062 61.7031L331.861 62.3055L331.863 62.302L331.062 61.7031ZM330.969 33.6719L330.171 34.2753L330.177 34.2833L330.969 33.6719ZM298.453 47.1719C298.453 42.336 299.395 38.0202 301.258 34.2043L299.461 33.3269C297.449 37.4485 296.453 42.0702 296.453 47.1719H298.453ZM301.255 34.21C303.149 30.3932 305.746 27.4772 309.044 25.4274L307.988 23.7288C304.348 25.9915 301.508 29.2006 299.464 33.3212L301.255 34.21ZM309.04 25.4295C312.369 23.3788 316.169 22.3438 320.469 22.3438V20.3438C315.831 20.3438 311.662 21.4649 307.991 23.7267L309.04 25.4295ZM320.469 22.3438C327.115 22.3438 332.412 24.6306 336.456 29.18L337.951 27.8513C333.494 22.8381 327.635 20.3438 320.469 20.3438V22.3438ZM336.458 29.1827C340.539 33.7398 342.625 39.8416 342.625 47.5938H344.625C344.625 39.4709 342.43 32.8539 337.948 27.8485L336.458 29.1827ZM342.625 47.5938V48.2031H344.625V47.5938H342.625ZM342.625 48.2031C342.625 53.0092 341.698 57.2948 339.866 61.0799L341.666 61.9514C343.646 57.8615 344.625 53.272 344.625 48.2031H342.625ZM339.864 61.0829C338.068 64.8249 335.491 67.7236 332.13 69.8061L333.183 71.5064C336.884 69.2139 339.713 66.0189 341.667 61.9484L339.864 61.0829ZM332.126 69.8083C328.802 71.8861 324.958 72.9375 320.562 72.9375V74.9375C325.292 74.9375 329.511 73.8014 333.186 71.5042L332.126 69.8083ZM320.562 72.9375C313.949 72.9375 308.65 70.6515 304.573 66.0985L303.083 67.4327C307.569 72.4422 313.426 74.9375 320.562 74.9375V72.9375ZM304.576 66.1013C300.524 61.5428 298.453 55.4704 298.453 47.7812H296.453C296.453 55.8421 298.633 62.4259 303.081 67.43L304.576 66.1013ZM298.453 47.7812V47.1719H296.453V47.7812H298.453ZM305.172 48.2031C305.172 53.9783 306.504 58.7277 309.267 62.3558L310.858 61.1442C308.433 57.9598 307.172 53.6779 307.172 48.2031H305.172ZM309.27 62.3604C312.089 66.0173 315.884 67.8594 320.562 67.8594V65.8594C316.491 65.8594 313.286 64.2952 310.855 61.1396L309.27 62.3604ZM320.562 67.8594C325.274 67.8594 329.073 66.0001 331.861 62.3054L330.264 61.1008C327.865 64.2811 324.664 65.8594 320.562 65.8594V67.8594ZM331.863 62.302C334.632 58.5995 335.953 53.5156 335.953 47.1719H333.953C333.953 53.2657 332.681 57.8693 330.262 61.1043L331.863 62.302ZM335.953 47.1719C335.953 41.4508 334.586 36.7169 331.76 33.0604L330.177 34.2833C332.664 37.5018 333.953 41.7679 333.953 47.1719H335.953ZM331.766 33.0684C328.951 29.3482 325.155 27.4688 320.469 27.4688V29.4688C324.533 29.4688 327.737 31.058 330.171 34.2753L331.766 33.0684ZM320.469 27.4688C315.876 27.4688 312.131 29.3171 309.317 32.9677L310.901 34.1885C313.338 31.0267 316.499 29.4688 320.469 29.4688V27.4688ZM309.317 32.9677C306.507 36.6147 305.172 41.7392 305.172 48.2031H307.172C307.172 41.9795 308.462 37.354 310.901 34.1885L309.317 32.9677ZM357.922 28.4688L358.71 29.0845L358.712 29.082L357.922 28.4688ZM386.516 27.4375L385.755 28.0868L387.516 30.1487V27.4375H386.516ZM386.516 1V0H385.516V1H386.516ZM395.188 1H396.188V0H395.188V1ZM395.188 73V74H396.188V73H395.188ZM387.219 73L386.222 73.0774L386.293 74H387.219V73ZM386.797 67.5625L387.794 67.4851L387.601 64.996L386.022 66.9302L386.797 67.5625ZM357.922 66.7188L357.128 67.327L357.131 67.3302L357.922 66.7188ZM386.516 59.1719L387.406 59.6281L387.516 59.4133V59.1719H386.516ZM386.516 35.875H387.516V35.6212L387.395 35.3982L386.516 35.875ZM353.391 47.2188C353.391 39.5934 355.196 33.5809 358.71 29.0845L357.134 27.853C353.273 32.7941 351.391 39.2816 351.391 47.2188H353.391ZM358.712 29.082C362.212 24.5738 366.749 22.3438 372.406 22.3438V20.3438C366.126 20.3438 361.007 22.8637 357.132 27.8555L358.712 29.082ZM372.406 22.3438C378.088 22.3438 382.499 24.2733 385.755 28.0868L387.276 26.7882C383.595 22.4767 378.6 20.3438 372.406 20.3438V22.3438ZM387.516 27.4375V1H385.516V27.4375H387.516ZM386.516 2H395.188V0H386.516V2ZM394.188 1V73H396.188V1H394.188ZM395.188 72H387.219V74H395.188V72ZM388.216 72.9226L387.794 67.4851L385.8 67.6399L386.222 73.0774L388.216 72.9226ZM386.022 66.9302C382.769 70.9159 378.243 72.9375 372.312 72.9375V74.9375C378.757 74.9375 383.887 72.7091 387.572 68.1948L386.022 66.9302ZM372.312 72.9375C366.76 72.9375 362.25 70.6848 358.713 66.1073L357.131 67.3302C361.031 72.3777 366.115 74.9375 372.312 74.9375V72.9375ZM358.716 66.1105C355.195 61.516 353.391 55.4669 353.391 47.875H351.391C351.391 55.7831 353.274 62.2965 357.128 67.327L358.716 66.1105ZM353.391 47.875V47.2188H351.391V47.875H353.391ZM360.062 48.2031C360.062 54.0775 361.274 58.8125 363.818 62.2931L365.432 61.1131C363.226 58.0938 362.062 53.8288 362.062 48.2031H360.062ZM363.818 62.2931C366.39 65.8128 369.977 67.5781 374.469 67.5781V65.5781C370.585 65.5781 367.61 64.0935 365.432 61.1131L363.818 62.2931ZM374.469 67.5781C377.372 67.5781 379.939 66.9249 382.129 65.5784C384.319 64.2324 386.071 62.2306 387.406 59.6281L385.626 58.7157C384.429 61.0507 382.908 62.752 381.082 63.8747C379.256 64.997 377.065 65.5781 374.469 65.5781V67.5781ZM387.516 59.1719V35.875H385.516V59.1719H387.516ZM387.395 35.3982C386.027 32.8775 384.267 30.9406 382.097 29.6386C379.926 28.3362 377.402 27.7031 374.562 27.7031V29.7031C377.098 29.7031 379.254 30.2653 381.068 31.3536C382.882 32.4422 384.41 34.0913 385.637 36.3518L387.395 35.3982ZM374.562 27.7031C370.01 27.7031 366.389 29.4829 363.815 33.0387L365.435 34.2113C367.611 31.2046 370.615 29.7031 374.562 29.7031V27.7031ZM363.815 33.0387C361.263 36.5645 360.062 41.6698 360.062 48.2031H362.062C362.062 41.8614 363.237 37.248 365.435 34.2113L363.815 33.0387ZM462.453 4.75V3.75H461.453V4.75H462.453ZM471.5 4.75H472.5V3.75H471.5V4.75ZM465.594 68.4062L464.91 67.6763L464.907 67.6791L465.594 68.4062ZM428.422 54.1562V53.1562H427.422V54.1562H428.422ZM437.422 54.1562H438.422V53.1562H437.422V54.1562ZM440.609 63.2969L439.892 63.9937L439.897 63.9989L440.609 63.2969ZM458.938 63.0625L458.226 62.3601L458.221 62.365L458.938 63.0625ZM462.453 53.2188L463.453 53.2262V53.2188H462.453ZM462.453 5.75H471.5V3.75H462.453V5.75ZM470.5 4.75V53.0781H472.5V4.75H470.5ZM470.5 53.0781C470.5 59.3956 468.604 64.217 464.91 67.6764L466.277 69.1361C470.458 65.2205 472.5 59.8231 472.5 53.0781H470.5ZM464.907 67.6791C461.225 71.1551 456.272 72.9375 449.938 72.9375V74.9375C456.666 74.9375 462.15 73.0324 466.28 69.1334L464.907 67.6791ZM449.938 72.9375C443.324 72.9375 438.314 71.2485 434.77 67.9975L433.418 69.4713C437.436 73.1577 442.988 74.9375 449.938 74.9375V72.9375ZM434.77 67.9975C431.239 64.7585 429.422 60.1921 429.422 54.1562H427.422C427.422 60.6204 429.386 65.7727 433.418 69.4713L434.77 67.9975ZM428.422 55.1562H437.422V53.1562H428.422V55.1562ZM436.422 54.1562C436.422 58.2465 437.539 61.5712 439.892 63.9937L441.327 62.6001C439.43 60.6476 438.422 57.8785 438.422 54.1562H436.422ZM439.897 63.9989C442.296 66.4326 445.697 67.5781 449.938 67.5781V65.5781C446.053 65.5781 443.235 64.5361 441.322 62.5949L439.897 63.9989ZM449.938 67.5781C453.886 67.5781 457.158 66.3243 459.654 63.76L458.221 62.365C456.154 64.4882 453.427 65.5781 449.938 65.5781V67.5781ZM459.649 63.7648C462.192 61.1877 463.42 57.6288 463.453 53.2262L461.453 53.2113C461.423 57.2462 460.308 60.2498 458.226 62.3602L459.649 63.7648ZM463.453 53.2188V4.75H461.453V53.2188H463.453ZM486.078 33.7656L485.182 33.3212L485.179 33.3269L486.078 33.7656ZM494.234 24.5781L493.71 23.7267L493.706 23.7288L494.234 24.5781ZM522.922 28.5156L522.174 29.18L522.177 29.1827L522.922 28.5156ZM526.484 61.5156L525.584 61.0799L525.583 61.0829L526.484 61.5156ZM518.375 70.6562L517.848 69.8061L517.845 69.8083L518.375 70.6562ZM489.547 66.7656L488.799 67.43L488.802 67.4327L489.547 66.7656ZM495.781 61.75L494.986 62.3558L494.989 62.3604L495.781 61.75ZM516.781 61.7031L517.58 62.3055L517.582 62.302L516.781 61.7031ZM516.688 33.6719L515.89 34.2753L515.896 34.2833L516.688 33.6719ZM484.172 47.1719C484.172 42.336 485.114 38.0202 486.977 34.2043L485.179 33.3269C483.167 37.4485 482.172 42.0702 482.172 47.1719H484.172ZM486.974 34.21C488.867 30.3932 491.465 27.4772 494.762 25.4274L493.706 23.7288C490.066 25.9915 487.226 29.2006 485.182 33.3212L486.974 34.21ZM494.759 25.4295C498.088 23.3788 501.887 22.3438 506.188 22.3438V20.3438C501.55 20.3438 497.381 21.4649 493.71 23.7267L494.759 25.4295ZM506.188 22.3438C512.834 22.3438 518.131 24.6306 522.174 29.18L523.669 27.8513C519.213 22.8381 513.354 20.3438 506.188 20.3438V22.3438ZM522.177 29.1827C526.257 33.7398 528.344 39.8416 528.344 47.5938H530.344C530.344 39.4709 528.149 32.8539 523.667 27.8485L522.177 29.1827ZM528.344 47.5938V48.2031H530.344V47.5938H528.344ZM528.344 48.2031C528.344 53.0092 527.417 57.2948 525.584 61.0799L527.384 61.9514C529.364 57.8615 530.344 53.272 530.344 48.2031H528.344ZM525.583 61.0829C523.787 64.8249 521.21 67.7236 517.848 69.8061L518.902 71.5064C522.602 69.2139 525.432 66.0189 527.386 61.9484L525.583 61.0829ZM517.845 69.8083C514.52 71.8861 510.677 72.9375 506.281 72.9375V74.9375C511.011 74.9375 515.23 73.8014 518.905 71.5042L517.845 69.8083ZM506.281 72.9375C499.668 72.9375 494.369 70.6515 490.292 66.0985L488.802 67.4327C493.288 72.4422 499.145 74.9375 506.281 74.9375V72.9375ZM490.294 66.1013C486.242 61.5428 484.172 55.4704 484.172 47.7812H482.172C482.172 55.8421 484.351 62.4259 488.799 67.43L490.294 66.1013ZM484.172 47.7812V47.1719H482.172V47.7812H484.172ZM490.891 48.2031C490.891 53.9783 492.223 58.7277 494.986 62.3558L496.577 61.1442C494.152 57.9598 492.891 53.6779 492.891 48.2031H490.891ZM494.989 62.3604C497.807 66.0173 501.602 67.8594 506.281 67.8594V65.8594C502.21 65.8594 499.005 64.2952 496.573 61.1396L494.989 62.3604ZM506.281 67.8594C510.993 67.8594 514.792 66.0001 517.58 62.3054L515.983 61.1008C513.583 64.2811 510.382 65.8594 506.281 65.8594V67.8594ZM517.582 62.302C520.351 58.5995 521.672 53.5156 521.672 47.1719H519.672C519.672 53.2657 518.399 57.8693 515.98 61.1043L517.582 62.302ZM521.672 47.1719C521.672 41.4508 520.304 36.7169 517.479 33.0604L515.896 34.2833C518.383 37.5018 519.672 41.7679 519.672 47.1719H521.672ZM517.485 33.0684C514.67 29.3482 510.874 27.4688 506.188 27.4688V29.4688C510.251 29.4688 513.455 31.058 515.89 34.2753L517.485 33.0684ZM506.188 27.4688C501.594 27.4688 497.849 29.3171 495.036 32.9677L496.62 34.1885C499.057 31.0267 502.218 29.4688 506.188 29.4688V27.4688ZM495.036 32.9677C492.226 36.6147 490.891 41.7392 490.891 48.2031H492.891C492.891 41.9795 494.181 37.354 496.62 34.1885L495.036 32.9677ZM577.812 66.9062L578.609 67.5113L578.611 67.5088L577.812 66.9062ZM548.609 67.1406L549.401 66.5293L547.8 64.4569L547.612 67.0688L548.609 67.1406ZM548.188 73V74H549.118L549.185 73.0718L548.188 73ZM540.219 73H539.219V74H540.219V73ZM540.219 1V0H539.219V1H540.219ZM548.891 1H549.891V0H548.891V1ZM548.891 27.8594H547.891V30.6943L549.669 28.4868L548.891 27.8594ZM577.859 28.3281L577.06 28.929L577.063 28.9324L577.859 28.3281ZM548.891 36.6719L547.986 36.2461L547.891 36.4483V36.6719H548.891ZM548.891 58.6094H547.891V58.8454L547.996 59.0566L548.891 58.6094ZM582.156 48.2031C582.156 55.8032 580.41 61.8056 577.014 66.3037L578.611 67.5088C582.34 62.5694 584.156 56.103 584.156 48.2031H582.156ZM577.016 66.3012C573.647 70.7343 569.163 72.9375 563.469 72.9375V74.9375C569.774 74.9375 574.853 72.4532 578.609 67.5113L577.016 66.3012ZM563.469 72.9375C557.33 72.9375 552.687 70.784 549.401 66.5293L547.818 67.7519C551.532 72.5598 556.795 74.9375 563.469 74.9375V72.9375ZM547.612 67.0688L547.19 72.9282L549.185 73.0718L549.607 67.2124L547.612 67.0688ZM548.188 72H540.219V74H548.188V72ZM541.219 73V1H539.219V73H541.219ZM540.219 2H548.891V0H540.219V2ZM547.891 1V27.8594H549.891V1H547.891ZM549.669 28.4868C552.958 24.4051 557.486 22.3438 563.375 22.3438V20.3438C556.952 20.3438 551.823 22.6262 548.112 27.232L549.669 28.4868ZM563.375 22.3438C569.238 22.3438 573.761 24.5403 577.06 28.929L578.659 27.7273C574.958 22.8035 569.825 20.3438 563.375 20.3438V22.3438ZM577.063 28.9324C580.42 33.3589 582.156 39.4952 582.156 47.4531H584.156C584.156 39.2236 582.362 32.6098 578.656 27.7239L577.063 28.9324ZM582.156 47.4531V48.2031H584.156V47.4531H582.156ZM575.484 47.2188C575.484 41.2027 574.326 36.4058 571.878 32.953L570.247 34.1095C572.362 37.0942 573.484 41.4223 573.484 47.2188H575.484ZM571.878 32.953C569.392 29.4444 565.792 27.7031 561.219 27.7031V29.7031C565.208 29.7031 568.171 31.1806 570.247 34.1095L571.878 32.953ZM561.219 27.7031C558.2 27.7031 555.547 28.4062 553.305 29.8555C551.064 31.3038 549.299 33.4548 547.986 36.2461L549.795 37.0977C550.982 34.5765 552.522 32.7431 554.391 31.5351C556.258 30.3282 558.519 29.7031 561.219 29.7031V27.7031ZM547.891 36.6719V58.6094H549.891V36.6719H547.891ZM547.996 59.0566C549.388 61.8404 551.198 63.9839 553.448 65.4276C555.702 66.8733 558.337 67.5781 561.312 67.5781V65.5781C558.663 65.5781 556.415 64.9548 554.528 63.7442C552.638 62.5317 551.049 60.6909 549.785 58.1622L547.996 59.0566ZM561.312 67.5781C565.772 67.5781 569.317 65.8284 571.828 62.3335L570.203 61.1665C568.089 64.1091 565.165 65.5781 561.312 65.5781V67.5781ZM571.828 62.3335C574.318 58.8675 575.484 53.7759 575.484 47.2188H573.484C573.484 53.5991 572.338 58.195 570.203 61.1665L571.828 62.3335ZM603.828 53.7344V54.7344H604.815L604.828 53.7478L603.828 53.7344ZM596 53.7344L595 53.7468L595.012 54.7344H596V53.7344ZM595.391 4.75V3.75H594.378L594.391 4.76244L595.391 4.75ZM604.484 4.75L605.484 4.7634L605.498 3.75H604.484V4.75ZM596.328 65.125L595.586 64.4547L595.585 64.456L596.328 65.125ZM604.016 65.125L603.274 65.7953L603.279 65.8013L603.285 65.8073L604.016 65.125ZM604.016 72.1562L604.735 72.8508L604.741 72.8448L604.747 72.8386L604.016 72.1562ZM596.328 72.1562L595.585 72.8252L595.597 72.8382L595.609 72.8508L596.328 72.1562ZM603.828 52.7344H596V54.7344H603.828V52.7344ZM597 53.7219L596.391 4.73756L594.391 4.76244L595 53.7468L597 53.7219ZM595.391 5.75H604.484V3.75H595.391V5.75ZM603.484 4.7366L602.828 53.721L604.828 53.7478L605.484 4.7634L603.484 4.7366ZM596.062 68.6406C596.062 67.4508 596.412 66.5263 597.071 65.794L595.585 64.456C594.556 65.5987 594.062 67.0179 594.062 68.6406H596.062ZM597.07 65.7953C597.704 65.0939 598.679 64.6719 600.172 64.6719V62.6719C598.289 62.6719 596.702 63.2186 595.586 64.4547L597.07 65.7953ZM600.172 64.6719C601.664 64.6719 602.64 65.0939 603.274 65.7953L604.758 64.4547C603.641 63.2186 602.054 62.6719 600.172 62.6719V64.6719ZM603.285 65.8073C603.969 66.5411 604.328 67.461 604.328 68.6406H606.328C606.328 67.0077 605.812 65.5839 604.747 64.4427L603.285 65.8073ZM604.328 68.6406C604.328 69.8202 603.969 70.7402 603.285 71.4739L604.747 72.8386C605.812 71.6973 606.328 70.2735 606.328 68.6406H604.328ZM603.296 71.4617C602.667 72.1133 601.684 72.5156 600.172 72.5156V74.5156C602.035 74.5156 603.614 74.0117 604.735 72.8508L603.296 71.4617ZM600.172 72.5156C598.66 72.5156 597.677 72.1133 597.048 71.4617L595.609 72.8508C596.73 74.0117 598.309 74.5156 600.172 74.5156V72.5156ZM597.071 71.4873C596.412 70.7549 596.062 69.8304 596.062 68.6406H594.062C594.062 70.2633 594.556 71.6826 595.585 72.8252L597.071 71.4873Z" fill="black"/>
</svg>
