<svg width="644" height="101" viewBox="0 0 644 101" fill="none" xmlns="http://www.w3.org/2000/svg">
<path d="M0 36.4999C0 36.4999 38 33.5 72.5 22C128 -1.99996 136.046 2.45387 160 2.00005C189.978 1.43209 251 -3.99995 285.5 16.5C301.5 33.5 349.829 31.3315 354.5 33.5C368.5 39.9999 405.5 46 445.5 46.4999C485.5 46.9999 471 34 492.5 29.9999C514 25.9998 530 16.5 569.5 16.5C609 16.5 644 36.4999 644 36.4999V92.5C644 92.5 600.266 74.2325 569.5 72.5C538.712 70.7662 522.169 81.5943 492.5 90C473.963 95.2518 452.526 95.4639 433.5 98.4999C397.121 104.305 388.511 97.4018 352 92.5C310.345 86.9076 283.548 72.3317 251 66.5C192 55.9288 193 51.0001 156 51.0001C134.431 51.0001 100 72 76.5 72C28 79.5 0 98.4999 0 98.4999V36.4999Z" fill="#DD0F0F"/>
</svg>